<svg width="40" height="40" viewBox="0 0 40 40" fill="none" xmlns="http://www.w3.org/2000/svg">
<path d="M10.896 3.00001C6.95475 3.00001 3.75 6.20601 3.75 10.146V28.354C3.75 32.2953 6.95475 35.5 10.896 35.5H29.104C33.0453 35.5 36.25 32.294 36.25 28.354V10.146C36.25 6.81726 33.8944 3.88347 30.6494 3.16847C29.9782 3.01972 29.3077 3.44563 29.1602 4.12063C29.0114 4.79188 29.4362 5.45494 30.1074 5.60744C30.7712 5.90244 31.25 6.60626 31.25 7.37501C31.25 8.41001 30.41 9.25001 29.375 9.25001H10.9351C10.4188 9.25001 10 9.66882 10 10.1851V28.625C10 29.66 9.16 30.5 8.125 30.5C7.2675 30.5 6.55063 29.9191 6.32812 29.1328C6.28437 28.8778 6.25 28.6203 6.25 28.354V10.1851C6.25 7.60131 8.35131 5.5 10.9351 5.5H24.314H25.7593C26.4505 5.5 27.0093 4.94125 27.0093 4.25C27.0093 3.55875 26.4505 3 25.7593 3L10.896 3.00001ZM20 11.75C24.1363 11.75 27.5 15.1138 27.5 19.25C27.5 23.3863 24.1363 26.75 20 26.75C15.8637 26.75 12.5 23.3863 12.5 19.25C12.5 15.1138 15.8637 11.75 20 11.75ZM30 11.75C30.69 11.75 31.25 12.31 31.25 13C31.25 13.69 30.69 14.25 30 14.25C29.31 14.25 28.75 13.69 28.75 13C28.75 12.31 29.31 11.75 30 11.75ZM20 14.25C17.2386 14.25 15 16.4886 15 19.25C15 22.0114 17.2386 24.25 20 24.25C22.7614 24.25 25 22.0114 25 19.25C25 16.4886 22.7614 14.25 20 14.25Z" fill="#007AFF"/>
</svg>
