<svg width="174" height="40" viewBox="0 0 174 40" fill="none" xmlns="http://www.w3.org/2000/svg">
<path d="M50.74 30V15.51H54.7V30H50.74ZM52.72 13.17C52.08 13.17 51.55 12.96 51.13 12.54C50.71 12.1 50.5 11.56 50.5 10.92C50.5 10.3 50.71 9.77 51.13 9.33C51.55 8.89 52.08 8.67 52.72 8.67C53.38 8.67 53.91 8.89 54.31 9.33C54.73 9.77 54.94 10.3 54.94 10.92C54.94 11.56 54.73 12.1 54.31 12.54C53.91 12.96 53.38 13.17 52.72 13.17ZM58.1814 30V15.51H62.1114V30H58.1814ZM67.6314 30V21.45C67.6314 20.61 67.3614 19.96 66.8214 19.5C66.3014 19.02 65.6514 18.78 64.8714 18.78C64.3514 18.78 63.8814 18.89 63.4614 19.11C63.0414 19.31 62.7114 19.61 62.4714 20.01C62.2314 20.41 62.1114 20.89 62.1114 21.45L60.5814 20.7C60.5814 19.58 60.8214 18.61 61.3014 17.79C61.8014 16.97 62.4714 16.34 63.3114 15.9C64.1514 15.44 65.1014 15.21 66.1614 15.21C67.1614 15.21 68.0714 15.44 68.8914 15.9C69.7114 16.34 70.3614 16.97 70.8414 17.79C71.3214 18.59 71.5614 19.56 71.5614 20.7V30H67.6314ZM77.0814 30V21.45C77.0814 20.61 76.8114 19.96 76.2714 19.5C75.7514 19.02 75.1014 18.78 74.3214 18.78C73.8214 18.78 73.3514 18.89 72.9114 19.11C72.4914 19.31 72.1614 19.61 71.9214 20.01C71.6814 20.41 71.5614 20.89 71.5614 21.45L69.3114 20.91C69.3914 19.75 69.7014 18.75 70.2414 17.91C70.7814 17.05 71.4914 16.39 72.3714 15.93C73.2514 15.45 74.2314 15.21 75.3114 15.21C76.3914 15.21 77.3614 15.44 78.2214 15.9C79.0814 16.34 79.7614 16.98 80.2614 17.82C80.7614 18.66 81.0114 19.66 81.0114 20.82V30H77.0814ZM90.257 30.3C88.937 30.3 87.747 29.97 86.687 29.31C85.627 28.65 84.797 27.75 84.197 26.61C83.597 25.47 83.297 24.19 83.297 22.77C83.297 21.33 83.597 20.04 84.197 18.9C84.797 17.76 85.627 16.86 86.687 16.2C87.747 15.54 88.937 15.21 90.257 15.21C91.297 15.21 92.227 15.42 93.047 15.84C93.867 16.26 94.517 16.85 94.997 17.61C95.497 18.35 95.767 19.19 95.807 20.13V25.35C95.767 26.31 95.497 27.16 94.997 27.9C94.517 28.64 93.867 29.23 93.047 29.67C92.227 30.09 91.297 30.3 90.257 30.3ZM90.977 26.67C92.077 26.67 92.967 26.31 93.647 25.59C94.327 24.85 94.667 23.9 94.667 22.74C94.667 21.98 94.507 21.31 94.187 20.73C93.887 20.13 93.457 19.67 92.897 19.35C92.357 19.01 91.717 18.84 90.977 18.84C90.257 18.84 89.617 19.01 89.057 19.35C88.517 19.67 88.087 20.13 87.767 20.73C87.467 21.31 87.317 21.98 87.317 22.74C87.317 23.52 87.467 24.21 87.767 24.81C88.087 25.39 88.517 25.85 89.057 26.19C89.617 26.51 90.257 26.67 90.977 26.67ZM94.457 30V26.1L95.087 22.56L94.457 19.08V15.51H98.357V30H94.457ZM107.894 36.42C106.354 36.42 104.994 36.14 103.814 35.58C102.634 35.04 101.694 34.27 100.994 33.27L103.484 30.78C104.044 31.44 104.664 31.94 105.344 32.28C106.044 32.64 106.884 32.82 107.864 32.82C109.084 32.82 110.044 32.51 110.744 31.89C111.464 31.27 111.824 30.41 111.824 29.31V25.68L112.484 22.5L111.854 19.32V15.51H115.754V29.25C115.754 30.69 115.414 31.94 114.734 33C114.074 34.08 113.154 34.92 111.974 35.52C110.794 36.12 109.434 36.42 107.894 36.42ZM107.714 29.61C106.414 29.61 105.244 29.3 104.204 28.68C103.164 28.04 102.344 27.17 101.744 26.07C101.164 24.97 100.874 23.74 100.874 22.38C100.874 21.02 101.164 19.8 101.744 18.72C102.344 17.64 103.164 16.79 104.204 16.17C105.244 15.53 106.414 15.21 107.714 15.21C108.794 15.21 109.744 15.42 110.564 15.84C111.404 16.26 112.064 16.84 112.544 17.58C113.024 18.3 113.284 19.15 113.324 20.13V24.69C113.284 25.65 113.014 26.51 112.514 27.27C112.034 28.01 111.374 28.59 110.534 29.01C109.714 29.41 108.774 29.61 107.714 29.61ZM108.494 26.04C109.214 26.04 109.834 25.89 110.354 25.59C110.894 25.27 111.314 24.84 111.614 24.3C111.914 23.74 112.064 23.11 112.064 22.41C112.064 21.69 111.914 21.06 111.614 20.52C111.314 19.98 110.894 19.56 110.354 19.26C109.834 18.94 109.214 18.78 108.494 18.78C107.774 18.78 107.144 18.94 106.604 19.26C106.064 19.56 105.644 19.99 105.344 20.55C105.044 21.09 104.894 21.71 104.894 22.41C104.894 23.09 105.044 23.71 105.344 24.27C105.644 24.81 106.064 25.24 106.604 25.56C107.144 25.88 107.774 26.04 108.494 26.04ZM119.207 30V15.51H123.167V30H119.207ZM121.187 13.17C120.547 13.17 120.017 12.96 119.597 12.54C119.177 12.1 118.967 11.56 118.967 10.92C118.967 10.3 119.177 9.77 119.597 9.33C120.017 8.89 120.547 8.67 121.187 8.67C121.847 8.67 122.377 8.89 122.777 9.33C123.197 9.77 123.407 10.3 123.407 10.92C123.407 11.56 123.197 12.1 122.777 12.54C122.377 12.96 121.847 13.17 121.187 13.17ZM136.398 30V21.69C136.398 20.83 136.128 20.13 135.588 19.59C135.048 19.05 134.348 18.78 133.488 18.78C132.928 18.78 132.428 18.9 131.988 19.14C131.548 19.38 131.198 19.72 130.938 20.16C130.698 20.6 130.578 21.11 130.578 21.69L129.048 20.91C129.048 19.77 129.288 18.78 129.768 17.94C130.268 17.08 130.948 16.41 131.808 15.93C132.688 15.45 133.678 15.21 134.778 15.21C135.838 15.21 136.788 15.48 137.628 16.02C138.468 16.54 139.128 17.23 139.608 18.09C140.088 18.93 140.328 19.84 140.328 20.82V30H136.398ZM126.648 30V15.51H130.578V30H126.648ZM150.424 30.3C148.904 30.3 147.554 29.98 146.374 29.34C145.194 28.68 144.254 27.78 143.554 26.64C142.874 25.5 142.534 24.2 142.534 22.74C142.534 21.3 142.864 20.02 143.524 18.9C144.204 17.76 145.124 16.86 146.284 16.2C147.444 15.52 148.734 15.18 150.154 15.18C151.554 15.18 152.784 15.5 153.844 16.14C154.924 16.76 155.764 17.62 156.364 18.72C156.984 19.8 157.294 21.03 157.294 22.41C157.294 22.67 157.274 22.94 157.234 23.22C157.214 23.48 157.164 23.78 157.084 24.12L144.904 24.15V21.21L155.254 21.18L153.664 22.41C153.624 21.55 153.464 20.83 153.184 20.25C152.924 19.67 152.534 19.23 152.014 18.93C151.514 18.61 150.894 18.45 150.154 18.45C149.374 18.45 148.694 18.63 148.114 18.99C147.534 19.33 147.084 19.82 146.764 20.46C146.464 21.08 146.314 21.82 146.314 22.68C146.314 23.56 146.474 24.33 146.794 24.99C147.134 25.63 147.614 26.13 148.234 26.49C148.854 26.83 149.574 27 150.394 27C151.134 27 151.804 26.88 152.404 26.64C153.004 26.38 153.524 26 153.964 25.5L156.274 27.81C155.574 28.63 154.714 29.25 153.694 29.67C152.694 30.09 151.604 30.3 150.424 30.3ZM168.404 30L164.594 24.12L163.784 23.52L158.144 15.51H162.794L166.304 20.82L167.054 21.39L173.024 30H168.404ZM157.844 30L163.754 21.72L166.004 24.39L162.284 30H157.844ZM167.204 23.49L164.894 20.85L168.344 15.51H172.754L167.204 23.49Z" fill="white"/>
<path d="M10.896 3.00001C6.95475 3.00001 3.75 6.20601 3.75 10.146V28.354C3.75 32.2953 6.95475 35.5 10.896 35.5H29.104C33.0453 35.5 36.25 32.294 36.25 28.354V10.146C36.25 6.81726 33.8944 3.88347 30.6494 3.16847C29.9782 3.01972 29.3077 3.44563 29.1602 4.12063C29.0114 4.79188 29.4362 5.45494 30.1074 5.60744C30.7712 5.90244 31.25 6.60626 31.25 7.37501C31.25 8.41001 30.41 9.25001 29.375 9.25001H10.9351C10.4188 9.25001 10 9.66882 10 10.1851V28.625C10 29.66 9.16 30.5 8.125 30.5C7.2675 30.5 6.55063 29.9191 6.32812 29.1328C6.28437 28.8778 6.25 28.6203 6.25 28.354V10.1851C6.25 7.60131 8.35131 5.5 10.9351 5.5H24.314H25.7593C26.4505 5.5 27.0093 4.94125 27.0093 4.25C27.0093 3.55875 26.4505 3 25.7593 3L10.896 3.00001ZM20 11.75C24.1363 11.75 27.5 15.1138 27.5 19.25C27.5 23.3863 24.1363 26.75 20 26.75C15.8637 26.75 12.5 23.3863 12.5 19.25C12.5 15.1138 15.8637 11.75 20 11.75ZM30 11.75C30.69 11.75 31.25 12.31 31.25 13C31.25 13.69 30.69 14.25 30 14.25C29.31 14.25 28.75 13.69 28.75 13C28.75 12.31 29.31 11.75 30 11.75ZM20 14.25C17.2386 14.25 15 16.4886 15 19.25C15 22.0114 17.2386 24.25 20 24.25C22.7614 24.25 25 22.0114 25 19.25C25 16.4886 22.7614 14.25 20 14.25Z" fill="#007AFF"/>
</svg>
