<svg width="65" height="65" viewBox="0 0 65 65" fill="none" xmlns="http://www.w3.org/2000/svg">
<path d="M17.706 4.87502C11.3015 4.87502 6.09375 10.0848 6.09375 16.4873V46.0753C6.09375 52.4798 11.3015 57.6875 17.706 57.6875H47.294C53.6986 57.6875 58.9063 52.4778 58.9063 46.0753V16.4873C58.9063 11.0781 55.0784 6.31065 49.8053 5.14877C48.7145 4.90705 47.625 5.59914 47.3853 6.69602C47.1435 7.7868 47.8338 8.86427 48.9246 9.11209C50.0032 9.59146 50.7812 10.7352 50.7812 11.9844C50.7812 13.6663 49.4163 15.0313 47.7344 15.0313H17.7695C16.9306 15.0313 16.25 15.7118 16.25 16.5507V46.5156C16.25 48.1975 14.885 49.5625 13.2031 49.5625C11.8097 49.5625 10.6448 48.6185 10.2832 47.3408C10.2121 46.9265 10.1562 46.5079 10.1562 46.0753V16.5507C10.1562 12.3521 13.5709 8.9375 17.7695 8.9375H39.5102H41.8588C42.9821 8.9375 43.8901 8.02953 43.8901 6.90625C43.8901 5.78297 42.9821 4.875 41.8588 4.875L17.706 4.87502ZM32.5 19.0938C39.2214 19.0938 44.6875 24.5599 44.6875 31.2813C44.6875 38.0027 39.2214 43.4688 32.5 43.4688C25.7786 43.4688 20.3125 38.0027 20.3125 31.2813C20.3125 24.5599 25.7786 19.0938 32.5 19.0938ZM48.75 19.0938C49.8712 19.0938 50.7812 20.0038 50.7812 21.125C50.7812 22.2463 49.8712 23.1563 48.75 23.1563C47.6288 23.1563 46.7188 22.2463 46.7188 21.125C46.7188 20.0038 47.6288 19.0938 48.75 19.0938ZM32.5 23.1563C28.0127 23.1563 24.375 26.794 24.375 31.2813C24.375 35.7686 28.0127 39.4063 32.5 39.4063C36.9873 39.4063 40.625 35.7686 40.625 31.2813C40.625 26.794 36.9873 23.1563 32.5 23.1563Z" fill="#007AFF"/>
</svg>
